<?xml version="1.0" standalone="no"?>
<!DOCTYPE svg PUBLIC "-//W3C//DTD SVG 20010904//EN"
 "http://www.w3.org/TR/2001/REC-SVG-20010904/DTD/svg10.dtd">
<svg version="1.0" xmlns="http://www.w3.org/2000/svg"
 width="7615.000000pt" height="1192.000000pt" viewBox="0 0 7615.000000 1192.000000"
 preserveAspectRatio="xMidYMid meet">

<g transform="translate(0.000000,1192.000000) scale(0.100000,-0.100000)"
fill="#000000" stroke="none">
<path d="M10 11908 c0 -25 249 -991 257 -998 4 -4 453 -52 998 -108 656 -67
1002 -106 1026 -116 51 -21 95 -61 123 -110 19 -31 150 -584 530 -2231 278
-1204 509 -2198 513 -2208 6 -13 100 154 357 630 193 356 349 654 349 663 -1
8 -202 883 -448 1943 -351 1519 -452 1941 -474 1986 -57 111 -158 200 -276
242 -45 16 -355 50 -1468 164 -777 79 -1429 147 -1449 150 -27 4 -38 2 -38 -7z"/>
<path d="M10430 10750 c-143 -35 -328 -128 -480 -240 -145 -108 -200 -176
-395 -481 -99 -155 -181 -286 -183 -291 -2 -4 1043 -8 2323 -8 l2326 0 24 -25
c28 -27 31 -60 11 -108 -7 -18 -624 -993 -1370 -2167 -1480 -2329 -1402 -2213
-1543 -2282 l-68 -33 -2325 -3 -2325 -3 -245 -385 c-135 -212 -257 -409 -272
-436 -33 -59 -37 -130 -12 -167 38 -54 -124 -51 2681 -51 2284 0 2606 2 2663
15 236 55 537 238 689 419 43 51 3793 5938 3854 6048 36 67 38 144 5 176 -13
11 -36 25 -51 31 -20 8 -810 11 -2630 10 -2498 0 -2605 -1 -2677 -19z"/>
<path d="M5878 7266 c-21 -46 -38 -86 -38 -90 0 -3 1407 -6 3128 -6 l3127 0
42 90 41 90 -3131 0 -3132 -1 -37 -83z"/>
<path d="M5500 6255 c-11 -25 -29 -65 -40 -90 l-19 -45 2990 0 2990 0 31 67
c16 37 34 77 39 90 l9 23 -2991 0 -2990 0 -19 -45z"/>
<path d="M3973 2336 c-247 -47 -457 -158 -633 -336 -149 -149 -251 -328 -308
-540 -22 -84 -26 -115 -26 -265 -1 -188 12 -271 66 -425 140 -398 447 -660
883 -752 95 -20 363 -16 465 6 246 53 422 148 590 316 178 177 277 374 325
645 106 593 -275 1175 -872 1332 -122 31 -372 41 -490 19z"/>
<path d="M10116 2334 c-228 -41 -436 -148 -608 -312 -207 -198 -324 -436 -358
-730 -28 -237 46 -544 185 -769 70 -113 244 -283 359 -350 355 -209 785 -229
1155 -52 125 59 212 120 307 214 207 205 326 485 341 805 27 577 -398 1095
-981 1195 -109 18 -294 18 -400 -1z"/>
</g>
</svg>
